<?xml version="1.0" standalone="no"?><!DOCTYPE svg PUBLIC "-//W3C//DTD SVG 1.1//EN" "http://www.w3.org/Graphics/SVG/1.1/DTD/svg11.dtd"><svg height="192" legacy-metrics="false" node-id="1" sillyvg="true" template-height="192" template-width="223" version="1.1" viewBox="0 0 223 192" width="223" xmlns="http://www.w3.org/2000/svg" xmlns:xlink="http://www.w3.org/1999/xlink"><defs node-id="234"><linearGradient gradientUnits="userSpaceOnUse" id="未命名的渐变_617" node-id="5" x1="68.71" x2="68.71" y1="1" y2="-38.11"><stop offset="0" stop-color="#95f0b6"></stop><stop offset="1" stop-color="#71d9ff"></stop></linearGradient><linearGradient gradientUnits="userSpaceOnUse" id="未命名的渐变_815" node-id="8" x1="-56.32" x2="-56.32" y1="7.96" y2="33.5"><stop offset="0" stop-color="#d9ffe2"></stop><stop offset="1" stop-color="#bafff6"></stop></linearGradient><linearGradient gradientUnits="userSpaceOnUse" id="未命名的渐变_815-2" node-id="11" x1="-68.16" x2="-68.16" y1="7.96" y2="33.5"><stop offset="0" stop-color="#d9ffe2"></stop><stop offset="1" stop-color="#bafff6"></stop></linearGradient><linearGradient gradientUnits="userSpaceOnUse" id="未命名的渐变_582" node-id="12" x1="12.51" x2="12.51" y1="38.94" y2="-2.71"><stop offset="0" stop-color="#77c94a"></stop><stop offset="1" stop-color="#f2f556"></stop></linearGradient><linearGradient gradientUnits="userSpaceOnUse" id="未命名的渐变_594" node-id="15" x1="150.15" x2="150.15" y1="35.69" y2="3.19"><stop offset="0" stop-color="#98e86d"></stop><stop offset="1" stop-color="#e4ff75"></stop></linearGradient><linearGradient gradientUnits="userSpaceOnUse" id="未命名的渐变_582-2" node-id="18" x1="150.15" x2="150.15" y1="38.94" y2="-2.71"><stop offset="0" stop-color="#77c94a"></stop><stop offset="1" stop-color="#f2f556"></stop></linearGradient><linearGradient gradientUnits="userSpaceOnUse" id="未命名的渐变_615" node-id="19" x1="151.71" x2="151.71" y1="26.1" y2="12.85"><stop offset="0" stop-color="#bcff96"></stop><stop offset="1" stop-color="#eeffa6"></stop></linearGradient><linearGradient gradientUnits="userSpaceOnUse" id="未命名的渐变_802" node-id="22" x1="19.56" x2="19.56" y1="105.83" y2="66.72"><stop offset="0" stop-color="#ae82ff"></stop><stop offset="1" stop-color="#aad4fa"></stop></linearGradient><linearGradient gradientUnits="userSpaceOnUse" id="未命名的渐变_512" node-id="25" x1="19.62" x2="19.62" y1="101.67" y2="70.45"><stop offset="0" stop-color="#cfe8ff"></stop><stop offset="1" stop-color="#dcfaf9"></stop></linearGradient><linearGradient gradientUnits="userSpaceOnUse" id="未命名的渐变_512-2" node-id="28" x1="19.62" x2="19.62" y1="93.86" y2="78.25"><stop offset="0" stop-color="#cfe8ff"></stop><stop offset="1" stop-color="#dcfaf9"></stop></linearGradient><linearGradient gradientUnits="userSpaceOnUse" id="未命名的渐变_877" node-id="29" x1="65.43" x2="65.43" y1="106.45" y2="66.91"><stop offset="0" stop-color="#ff9959"></stop><stop offset="1" stop-color="#ffef4d"></stop></linearGradient><linearGradient gradientUnits="userSpaceOnUse" id="未命名的渐变_868" node-id="32" x1="203.84" x2="203.84" y1="98.75" y2="73.81"><stop offset="0" stop-color="#ffda99"></stop><stop offset="1" stop-color="#fcffc9"></stop></linearGradient><linearGradient gradientUnits="userSpaceOnUse" id="未命名的渐变_707" node-id="35" x1="196.18" x2="196.18" y1="102.28" y2="69.3"><stop offset="0" stop-color="#ff9352"></stop><stop offset="1" stop-color="#ffef4d"></stop></linearGradient><linearGradient gradientUnits="userSpaceOnUse" id="未命名的渐变_707-2" node-id="38" x1="211.93" x2="211.93" y1="102.28" y2="69.3"><stop offset="0" stop-color="#ff9352"></stop><stop offset="1" stop-color="#ffef4d"></stop></linearGradient><linearGradient gradientUnits="userSpaceOnUse" id="未命名的渐变_892" node-id="39" x1="72.27" x2="72.27" y1="172.56" y2="133.44"><stop offset="0" stop-color="#a082ff"></stop><stop offset="1" stop-color="#ffb8f1"></stop></linearGradient><linearGradient gradientUnits="userSpaceOnUse" id="未命名的渐变_830" node-id="42" x1="69.3" x2="69.3" y1="168.55" y2="134.67"><stop offset="0" stop-color="#edc8fa"></stop><stop offset="1" stop-color="#ffe6e6"></stop></linearGradient><linearGradient gradientUnits="userSpaceOnUse" id="未命名的渐变_759" node-id="45" x1="148.83" x2="148.83" y1="172.56" y2="133.44"><stop offset="0" stop-color="#e880ff"></stop><stop offset="1" stop-color="#ffc799"></stop></linearGradient><linearGradient gradientUnits="userSpaceOnUse" id="未命名的渐变_893" node-id="48" x1="148.83" x2="148.83" y1="155.29" y2="150.71"><stop offset="0" stop-color="#f5c4ff"></stop><stop offset="1" stop-color="#ffdef6"></stop></linearGradient><linearGradient gradientUnits="userSpaceOnUse" id="未命名的渐变_893-2" node-id="51" x1="141.96" x2="141.96" y1="155.29" y2="150.71"><stop offset="0" stop-color="#f5c4ff"></stop><stop offset="1" stop-color="#ffdef6"></stop></linearGradient><linearGradient gradientUnits="userSpaceOnUse" id="未命名的渐变_893-3" node-id="52" x1="155.71" x2="155.71" y1="155.29" y2="150.71"><stop offset="0" stop-color="#f5c4ff"></stop><stop offset="1" stop-color="#ffdef6"></stop></linearGradient><linearGradient gradientUnits="userSpaceOnUse" id="未命名的渐变_637" node-id="53" x1="-11.34" x2="5.2" y1="-39.37" y2="-39.37"><stop offset="0" stop-color="#eabaff"></stop><stop offset="1" stop-color="#ffc5c4"></stop></linearGradient><linearGradient gradientUnits="userSpaceOnUse" id="未命名的渐变_637-2" node-id="56" x1="-11.34" x2="25.64" y1="-48.19" y2="-48.19"><stop offset="0" stop-color="#eabaff"></stop><stop offset="1" stop-color="#ffc5c4"></stop></linearGradient><linearGradient gradientUnits="userSpaceOnUse" id="未命名的渐变_637-3" node-id="57" x1="152.66" x2="164.77" y1="111.37" y2="111.37"><stop offset="0" stop-color="#eabaff"></stop><stop offset="1" stop-color="#ffc5c4"></stop></linearGradient><linearGradient gradientUnits="userSpaceOnUse" id="未命名的渐变_637-4" node-id="58" x1="152.66" x2="179.73" y1="120.19" y2="120.19"><stop offset="0" stop-color="#eabaff"></stop><stop offset="1" stop-color="#ffc5c4"></stop></linearGradient><linearGradient gradientUnits="userSpaceOnUse" id="未命名的渐变_104" node-id="59" x1="126.13" x2="126.13" y1="121.4" y2="46.2"><stop offset="0" stop-color="#6b70ff"></stop><stop offset="1" stop-color="#4be7ff"></stop></linearGradient><linearGradient gradientUnits="userSpaceOnUse" id="未命名的渐变_104-2" node-id="62" x1="104.85" x2="104.85" y1="121.4" y2="46.2"><stop offset="0" stop-color="#6b70ff"></stop><stop offset="1" stop-color="#4be7ff"></stop></linearGradient><linearGradient gradientUnits="userSpaceOnUse" id="未命名的渐变_104-3" node-id="63" x1="116.21" x2="116.21" y1="121.4" y2="46.2"><stop offset="0" stop-color="#6b70ff"></stop><stop offset="1" stop-color="#4be7ff"></stop></linearGradient><linearGradient gradientUnits="userSpaceOnUse" id="未命名的渐变_104-4" node-id="64" x1="99.89" x2="99.89" y1="121.4" y2="46.2"><stop offset="0" stop-color="#6b70ff"></stop><stop offset="1" stop-color="#4be7ff"></stop></linearGradient><linearGradient gradientUnits="userSpaceOnUse" id="未命名的渐变_104-5" node-id="65" x1="106.59" x2="106.59" y1="121.4" y2="46.2"><stop offset="0" stop-color="#6b70ff"></stop><stop offset="1" stop-color="#4be7ff"></stop></linearGradient><linearGradient gradientUnits="userSpaceOnUse" id="未命名的渐变_104-6" node-id="66" x1="83.28" x2="83.28" y1="121.4" y2="46.2"><stop offset="0" stop-color="#6b70ff"></stop><stop offset="1" stop-color="#4be7ff"></stop></linearGradient><linearGradient gradientUnits="userSpaceOnUse" id="未命名的渐变_104-7" node-id="67" x1="96.69" x2="96.69" y1="121.4" y2="46.2"><stop offset="0" stop-color="#6b70ff"></stop><stop offset="1" stop-color="#4be7ff"></stop></linearGradient><linearGradient gradientUnits="userSpaceOnUse" id="未命名的渐变_104-8" node-id="68" x1="122.92" x2="122.92" y1="121.4" y2="46.2"><stop offset="0" stop-color="#6b70ff"></stop><stop offset="1" stop-color="#4be7ff"></stop></linearGradient><linearGradient gradientUnits="userSpaceOnUse" id="未命名的渐变_104-9" node-id="69" x1="88.34" x2="88.34" y1="121.4" y2="46.2"><stop offset="0" stop-color="#6b70ff"></stop><stop offset="1" stop-color="#4be7ff"></stop></linearGradient><linearGradient gradientUnits="userSpaceOnUse" id="未命名的渐变_104-10" node-id="70" x1="134.46" x2="134.46" y1="121.4" y2="46.2"><stop offset="0" stop-color="#6b70ff"></stop><stop offset="1" stop-color="#4be7ff"></stop></linearGradient><linearGradient gradientUnits="userSpaceOnUse" id="未命名的渐变_104-11" node-id="71" x1="88.39" x2="88.39" y1="121.4" y2="46.2"><stop offset="0" stop-color="#6b70ff"></stop><stop offset="1" stop-color="#4be7ff"></stop></linearGradient><linearGradient gradientUnits="userSpaceOnUse" id="未命名的渐变_104-12" node-id="72" x1="126.22" x2="126.22" y1="121.4" y2="46.2"><stop offset="0" stop-color="#6b70ff"></stop><stop offset="1" stop-color="#4be7ff"></stop></linearGradient><linearGradient gradientUnits="userSpaceOnUse" id="未命名的渐变_104-13" node-id="73" x1="106.6" x2="106.6" y1="121.4" y2="46.2"><stop offset="0" stop-color="#6b70ff"></stop><stop offset="1" stop-color="#4be7ff"></stop></linearGradient><linearGradient gradientUnits="userSpaceOnUse" id="未命名的渐变_104-14" node-id="74" x1="122.92" x2="122.92" y1="121.4" y2="46.2"><stop offset="0" stop-color="#6b70ff"></stop><stop offset="1" stop-color="#4be7ff"></stop></linearGradient><linearGradient gradientUnits="userSpaceOnUse" id="未命名的渐变_104-15" node-id="75" x1="126.12" x2="126.12" y1="121.4" y2="46.2"><stop offset="0" stop-color="#6b70ff"></stop><stop offset="1" stop-color="#4be7ff"></stop></linearGradient><linearGradient gradientUnits="userSpaceOnUse" id="未命名的渐变_104-16" node-id="76" x1="139.53" x2="139.53" y1="121.4" y2="46.2"><stop offset="0" stop-color="#6b70ff"></stop><stop offset="1" stop-color="#4be7ff"></stop></linearGradient><linearGradient gradientUnits="userSpaceOnUse" id="未命名的渐变_104-17" node-id="77" x1="132.83" x2="132.83" y1="121.4" y2="46.2"><stop offset="0" stop-color="#6b70ff"></stop><stop offset="1" stop-color="#4be7ff"></stop></linearGradient><linearGradient gradientUnits="userSpaceOnUse" id="未命名的渐变_104-18" node-id="78" x1="122.92" x2="122.92" y1="121.4" y2="46.2"><stop offset="0" stop-color="#6b70ff"></stop><stop offset="1" stop-color="#4be7ff"></stop></linearGradient><linearGradient gradientUnits="userSpaceOnUse" id="未命名的渐变_104-19" node-id="79" x1="111.4" x2="111.4" y1="121.4" y2="46.2"><stop offset="0" stop-color="#6b70ff"></stop><stop offset="1" stop-color="#4be7ff"></stop></linearGradient><linearGradient gradientUnits="userSpaceOnUse" id="未命名的渐变_104-21" node-id="80" x1="108.04" x2="108.04" y1="121.4" y2="46.2"><stop offset="0" stop-color="#6b70ff"></stop><stop offset="1" stop-color="#4be7ff"></stop></linearGradient><linearGradient gradientUnits="userSpaceOnUse" id="未命名的渐变_104-23" node-id="81" x1="122.97" x2="122.97" y1="121.4" y2="46.2"><stop offset="0" stop-color="#6b70ff"></stop><stop offset="1" stop-color="#4be7ff"></stop></linearGradient><linearGradient gradientUnits="userSpaceOnUse" id="未命名的渐变_104-25" node-id="82" x1="129.62" x2="129.62" y1="121.4" y2="46.2"><stop offset="0" stop-color="#6b70ff"></stop><stop offset="1" stop-color="#4be7ff"></stop></linearGradient><linearGradient gradientUnits="userSpaceOnUse" id="未命名的渐变_104-26" node-id="83" x1="119.71" x2="119.71" y1="121.4" y2="46.2"><stop offset="0" stop-color="#6b70ff"></stop><stop offset="1" stop-color="#4be7ff"></stop></linearGradient><linearGradient gradientUnits="userSpaceOnUse" id="未命名的渐变_104-29" node-id="84" x1="129.44" x2="129.44" y1="121.4" y2="46.2"><stop offset="0" stop-color="#6b70ff"></stop><stop offset="1" stop-color="#4be7ff"></stop></linearGradient><linearGradient gradientUnits="userSpaceOnUse" id="未命名的渐变_104-30" node-id="85" x1="119.72" x2="119.72" y1="121.4" y2="46.2"><stop offset="0" stop-color="#6b70ff"></stop><stop offset="1" stop-color="#4be7ff"></stop></linearGradient><linearGradient gradientUnits="userSpaceOnUse" id="未命名的渐变_104-31" node-id="86" x1="124.63" x2="124.63" y1="121.4" y2="46.2"><stop offset="0" stop-color="#6b70ff"></stop><stop offset="1" stop-color="#4be7ff"></stop></linearGradient><linearGradient gradientUnits="userSpaceOnUse" id="未命名的渐变_104-32" node-id="87" x1="136.13" x2="136.13" y1="121.4" y2="46.2"><stop offset="0" stop-color="#6b70ff"></stop><stop offset="1" stop-color="#4be7ff"></stop></linearGradient><linearGradient gradientUnits="userSpaceOnUse" id="未命名的渐变_104-33" node-id="88" x1="141.04" x2="141.04" y1="121.4" y2="46.2"><stop offset="0" stop-color="#6b70ff"></stop><stop offset="1" stop-color="#4be7ff"></stop></linearGradient><linearGradient gradientUnits="userSpaceOnUse" id="未命名的渐变_104-34" node-id="89" x1="78.42" x2="78.42" y1="121.4" y2="46.2"><stop offset="0" stop-color="#6b70ff"></stop><stop offset="1" stop-color="#4be7ff"></stop></linearGradient><linearGradient gradientUnits="userSpaceOnUse" id="未命名的渐变_104-36" node-id="90" x1="136.15" x2="136.15" y1="121.4" y2="46.2"><stop offset="0" stop-color="#6b70ff"></stop><stop offset="1" stop-color="#4be7ff"></stop></linearGradient><linearGradient gradientUnits="userSpaceOnUse" id="未命名的渐变_104-37" node-id="91" x1="132.83" x2="132.83" y1="121.4" y2="46.2"><stop offset="0" stop-color="#6b70ff"></stop><stop offset="1" stop-color="#4be7ff"></stop></linearGradient><linearGradient gradientUnits="userSpaceOnUse" id="未命名的渐变_104-39" node-id="92" x1="129.48" x2="129.48" y1="121.4" y2="46.2"><stop offset="0" stop-color="#6b70ff"></stop><stop offset="1" stop-color="#4be7ff"></stop></linearGradient><linearGradient gradientUnits="userSpaceOnUse" id="未命名的渐变_104-42" node-id="93" x1="126.12" x2="126.12" y1="121.4" y2="46.2"><stop offset="0" stop-color="#6b70ff"></stop><stop offset="1" stop-color="#4be7ff"></stop></linearGradient><linearGradient gradientUnits="userSpaceOnUse" id="未命名的渐变_104-43" node-id="94" x1="127.83" x2="127.83" y1="121.4" y2="46.2"><stop offset="0" stop-color="#6b70ff"></stop><stop offset="1" stop-color="#4be7ff"></stop></linearGradient><linearGradient gradientUnits="userSpaceOnUse" id="未命名的渐变_104-45" node-id="95" x1="104.89" x2="104.89" y1="121.4" y2="46.2"><stop offset="0" stop-color="#6b70ff"></stop><stop offset="1" stop-color="#4be7ff"></stop></linearGradient><linearGradient gradientUnits="userSpaceOnUse" id="未命名的渐变_104-46" node-id="96" x1="119.72" x2="119.72" y1="121.4" y2="46.2"><stop offset="0" stop-color="#6b70ff"></stop><stop offset="1" stop-color="#4be7ff"></stop></linearGradient><linearGradient gradientUnits="userSpaceOnUse" id="未命名的渐变_104-47" node-id="97" x1="119.66" x2="119.66" y1="121.4" y2="46.2"><stop offset="0" stop-color="#6b70ff"></stop><stop offset="1" stop-color="#4be7ff"></stop></linearGradient><linearGradient gradientUnits="userSpaceOnUse" id="未命名的渐变_104-48" node-id="98" x1="118" x2="118" y1="121.4" y2="46.2"><stop offset="0" stop-color="#6b70ff"></stop><stop offset="1" stop-color="#4be7ff"></stop></linearGradient><linearGradient gradientUnits="userSpaceOnUse" id="未命名的渐变_104-49" node-id="99" x1="117.93" x2="117.93" y1="121.4" y2="46.2"><stop offset="0" stop-color="#6b70ff"></stop><stop offset="1" stop-color="#4be7ff"></stop></linearGradient><linearGradient gradientUnits="userSpaceOnUse" id="未命名的渐变_104-51" node-id="100" x1="122.92" x2="122.92" y1="121.4" y2="46.2"><stop offset="0" stop-color="#6b70ff"></stop><stop offset="1" stop-color="#4be7ff"></stop></linearGradient><linearGradient gradientUnits="userSpaceOnUse" id="未命名的渐变_104-52" node-id="101" x1="121.29" x2="121.29" y1="121.4" y2="46.2"><stop offset="0" stop-color="#6b70ff"></stop><stop offset="1" stop-color="#4be7ff"></stop></linearGradient><linearGradient gradientUnits="userSpaceOnUse" id="未命名的渐变_104-53" node-id="102" x1="119.66" x2="119.66" y1="121.4" y2="46.2"><stop offset="0" stop-color="#6b70ff"></stop><stop offset="1" stop-color="#4be7ff"></stop></linearGradient><linearGradient gradientUnits="userSpaceOnUse" id="未命名的渐变_104-54" node-id="103" x1="142.8" x2="142.8" y1="121.4" y2="46.2"><stop offset="0" stop-color="#6b70ff"></stop><stop offset="1" stop-color="#4be7ff"></stop></linearGradient><linearGradient gradientUnits="userSpaceOnUse" id="未命名的渐变_104-55" node-id="104" x1="144.33" x2="144.33" y1="121.4" y2="46.2"><stop offset="0" stop-color="#6b70ff"></stop><stop offset="1" stop-color="#4be7ff"></stop></linearGradient><linearGradient gradientUnits="userSpaceOnUse" id="未命名的渐变_104-57" node-id="105" x1="118.01" x2="118.01" y1="121.4" y2="46.2"><stop offset="0" stop-color="#6b70ff"></stop><stop offset="1" stop-color="#4be7ff"></stop></linearGradient><linearGradient gradientUnits="userSpaceOnUse" id="未命名的渐变_104-58" node-id="106" x1="119.71" x2="119.71" y1="121.4" y2="46.2"><stop offset="0" stop-color="#6b70ff"></stop><stop offset="1" stop-color="#4be7ff"></stop></linearGradient><linearGradient gradientUnits="userSpaceOnUse" id="未命名的渐变_104-59" node-id="107" x1="98.29" x2="98.29" y1="121.4" y2="46.2"><stop offset="0" stop-color="#6b70ff"></stop><stop offset="1" stop-color="#4be7ff"></stop></linearGradient><linearGradient gradientUnits="userSpaceOnUse" id="未命名的渐变_104-62" node-id="108" x1="121.32" x2="121.32" y1="121.4" y2="46.2"><stop offset="0" stop-color="#6b70ff"></stop><stop offset="1" stop-color="#4be7ff"></stop></linearGradient><linearGradient gradientUnits="userSpaceOnUse" id="未命名的渐变_104-65" node-id="109" x1="139.33" x2="139.33" y1="121.4" y2="46.2"><stop offset="0" stop-color="#6b70ff"></stop><stop offset="1" stop-color="#4be7ff"></stop></linearGradient><linearGradient gradientUnits="userSpaceOnUse" id="未命名的渐变_104-66" node-id="110" x1="136.12" x2="136.12" y1="121.4" y2="46.2"><stop offset="0" stop-color="#6b70ff"></stop><stop offset="1" stop-color="#4be7ff"></stop></linearGradient><linearGradient gradientUnits="userSpaceOnUse" id="未命名的渐变_104-67" node-id="111" x1="137.73" x2="137.73" y1="121.4" y2="46.2"><stop offset="0" stop-color="#6b70ff"></stop><stop offset="1" stop-color="#4be7ff"></stop></linearGradient><linearGradient gradientUnits="userSpaceOnUse" id="未命名的渐变_104-68" node-id="112" x1="141.16" x2="141.16" y1="121.4" y2="46.2"><stop offset="0" stop-color="#6b70ff"></stop><stop offset="1" stop-color="#4be7ff"></stop></linearGradient><linearGradient gradientUnits="userSpaceOnUse" id="未命名的渐变_104-69" node-id="113" x1="142.8" x2="142.8" y1="121.4" y2="46.2"><stop offset="0" stop-color="#6b70ff"></stop><stop offset="1" stop-color="#4be7ff"></stop></linearGradient><linearGradient gradientUnits="userSpaceOnUse" id="未命名的渐变_104-71" node-id="114" x1="144.33" x2="144.33" y1="121.4" y2="46.2"><stop offset="0" stop-color="#6b70ff"></stop><stop offset="1" stop-color="#4be7ff"></stop></linearGradient><linearGradient gradientUnits="userSpaceOnUse" id="未命名的渐变_104-73" node-id="115" x1="144.36" x2="144.36" y1="121.4" y2="46.2"><stop offset="0" stop-color="#6b70ff"></stop><stop offset="1" stop-color="#4be7ff"></stop></linearGradient><linearGradient gradientUnits="userSpaceOnUse" id="未命名的渐变_104-74" node-id="116" x1="88.22" x2="88.22" y1="121.4" y2="46.2"><stop offset="0" stop-color="#6b70ff"></stop><stop offset="1" stop-color="#4be7ff"></stop></linearGradient><linearGradient gradientUnits="userSpaceOnUse" id="未命名的渐变_104-75" node-id="117" x1="134.58" x2="134.58" y1="121.4" y2="46.2"><stop offset="0" stop-color="#6b70ff"></stop><stop offset="1" stop-color="#4be7ff"></stop></linearGradient></defs><g node-id="947"><path d="M 159.01 145.56 L 159.01 144.06" fill="none" group-id="1" node-id="725" stroke="#dfe8ef" stroke-linecap="round" stroke-width="2" target-height="1.5" target-width="0" target-x="159.01" target-y="144.06"></path><path d="M 159.00 140.00 L 159.00 121.63 C 159.00 116.39 154.88 112.08 149.65 111.82" fill="none" group-id="1" node-id="727" stroke="#dfe8ef" stroke-dasharray="3.03 4.04" stroke-linecap="round" stroke-width="2" target-height="28.18" target-width="9.350006" target-x="149.65" target-y="111.82"></path><path d="M 147.64 111.81 L 146.14 111.81" fill="none" group-id="1" node-id="729" stroke="#dfe8ef" stroke-linecap="round" stroke-width="2" target-height="0" target-width="1.5" target-x="146.14" target-y="111.81"></path><path d="M 75.09 103.18 L 73.59 103.18" fill="none" group-id="1" node-id="731" stroke="#dfe8ef" stroke-linecap="round" stroke-width="2" target-height="0" target-width="1.5" target-x="73.59" target-y="103.18"></path><path d="M 69.30 103.18 L 51.74 103.18 C 43.68 103.18 37.15 96.65 37.14 88.59 L 37.14 86.20" fill="none" group-id="1" node-id="733" stroke="#dfe8ef" stroke-dasharray="3.22 4.29" stroke-linecap="round" stroke-width="2" target-height="16.980003" target-width="32.160004" target-x="37.14" target-y="86.2"></path><path d="M 37.14 84.06 L 37.14 82.56" fill="none" group-id="1" node-id="735" stroke="#dfe8ef" stroke-linecap="round" stroke-width="2" target-height="1.5" target-width="0" target-x="37.14" target-y="82.56"></path><path d="M 79.73 74.18 L 78.23 74.18" fill="none" group-id="1" node-id="737" stroke="#dfe8ef" stroke-linecap="round" stroke-width="2" target-height="0" target-width="1.5" target-x="78.23" target-y="74.18"></path><path d="M 74.44 73.81 C 67.83 72.27 63.14 66.38 63.14 59.59 L 63.14 41.00" fill="none" group-id="1" node-id="739" stroke="#dfe8ef" stroke-dasharray="2.87 3.82" stroke-linecap="round" stroke-width="2" target-height="32.809998" target-width="11.300003" target-x="63.14" target-y="41"></path><path d="M 63.14 39.06 L 63.14 37.56" fill="none" group-id="1" node-id="741" stroke="#dfe8ef" stroke-linecap="round" stroke-width="2" target-height="1.5" target-width="0" target-x="63.14" target-y="37.56"></path><path d="M 94.62 50.61 C 99.15 28.29 119.64 12.88 142.34 14.71 C 165.04 16.55 182.79 35.05 183.69 57.81 C 184.58 80.56 168.33 100.40 145.84 104.00" fill="none" group-id="1" node-id="743" stroke="#dfe8ef" stroke-dasharray="3 4" stroke-linecap="round" stroke-width="2" target-height="89.42305" target-width="89.06512" target-x="94.62" target-y="14.576946"></path><path d="M 145.07 66.88 C 170.21 69.47 191.27 87.05 198.29 111.33 C 205.31 135.61 196.89 161.72 177.01 177.32 C 157.13 192.93 129.77 194.91 107.85 182.32 C 85.93 169.73 73.85 145.11 77.31 120.07" fill="none" group-id="1" node-id="745" stroke="#dfe8ef" stroke-dasharray="3 4" stroke-linecap="round" stroke-width="2" target-height="123.65577" target-width="123.95157" target-x="76.767715" target-y="66.88"></path><path d="M 70.44 39.11 L 70.44 39.11 L 66.88 38.78 L 63.60 37.89 L 60.58 36.44 L 57.83 34.50 L 55.50 32.17 L 53.56 29.42 L 52.11 26.40 L 51.22 23.12 L 50.89 19.55 L 50.89 19.55 L 51.22 15.99 L 52.11 12.71 L 53.56 9.69 L 55.50 6.94 L 57.83 4.61 L 60.58 2.67 L 63.60 1.22 L 66.88 0.33 L 70.44 0.00 L 70.44 0.00 L 74.01 0.33 L 77.29 1.22 L 80.31 2.67 L 83.06 4.61 L 85.39 6.94 L 87.33 9.69 L 88.78 12.71 L 89.67 15.99 L 90.00 19.55 L 90.00 19.55 L 89.67 23.12 L 88.78 26.40 L 87.33 29.42 L 85.39 32.17 L 83.06 34.50 L 80.31 36.44 L 77.29 37.89 L 74.01 38.78 L 70.44 39.11 Z" fill="url(#未命名的渐变_617)" fill-rule="nonzero" group-id="1" node-id="747" stroke-linecap="butt" stroke-width="1" target-height="39.11" target-width="39.11" target-x="50.89" target-y="0"></path><path d="M 81.83 7.86 C 82.87 7.86 83.81 8.48 84.21 9.44 C 84.61 10.40 84.39 11.51 83.66 12.25 C 82.92 12.98 81.81 13.20 80.85 12.80 C 79.89 12.40 79.27 11.46 79.27 10.42 C 79.27 9.01 80.42 7.86 81.83 7.86 Z" fill="url(#未命名的渐变_815)" fill-rule="nonzero" group-id="1" node-id="749" stroke="none" target-height="5.128488" target-width="5.1284866" target-x="79.27" target-y="7.86"></path><path d="M 53.67 33.48 C 52.94 33.48 52.26 33.09 51.89 32.46 C 51.53 31.83 51.53 31.04 51.89 30.41 L 62.41 12.00 C 62.75 11.32 63.44 10.88 64.20 10.88 C 64.97 10.88 65.66 11.32 66.00 12.00 L 72.81 23.91 L 76.31 19.45 C 76.70 18.96 77.29 18.67 77.92 18.67 C 78.55 18.67 79.14 18.96 79.53 19.45 L 87.96 30.15 C 88.45 30.77 88.54 31.61 88.20 32.31 C 87.85 33.02 87.14 33.47 86.35 33.47 Z" fill="url(#未命名的渐变_815-2)" fill-rule="nonzero" group-id="1" node-id="751" stroke="none" target-height="22.597971" target-width="36.77053" target-x="51.618233" target-y="10.882029"></path><path d="M 150.66 0.00 L 150.66 0.00 C 161.46 -0.00 170.22 8.76 170.22 19.55 L 170.22 19.55 C 170.22 30.35 161.46 39.11 150.66 39.11 L 150.66 39.11 C 139.87 39.11 131.11 30.35 131.11 19.55 L 131.11 19.55 C 131.11 8.76 139.87 0.00 150.66 0.00 Z" fill="url(#未命名的渐变_582)" fill-rule="nonzero" group-id="1" node-id="753" stroke="none" target-height="39.11" target-width="39.11" target-x="131.11" target-y="0"></path><path d="M 161.66 3.35 L 138.66 3.35 C 137.42 3.34 136.23 3.83 135.36 4.70 C 134.48 5.57 133.99 6.76 134.00 8.00 L 134.00 31.00 C 134.00 32.22 134.49 33.39 135.35 34.26 C 136.22 35.12 137.39 35.60 138.61 35.60 L 161.61 35.60 C 162.83 35.60 164.00 35.12 164.87 34.26 C 165.73 33.39 166.22 32.22 166.22 31.00 L 166.22 8.00 C 166.22 5.45 164.16 3.39 161.61 3.39 Z" fill="url(#未命名的渐变_594)" fill-rule="nonzero" group-id="1" node-id="755" stroke="none" target-height="32.25" target-width="32.22" target-x="134" target-y="3.35"></path><path d="M 139.00 19.48 C 139.00 24.01 141.72 28.09 145.90 29.82 C 150.08 31.55 154.90 30.59 158.09 27.39 C 161.29 24.19 162.24 19.37 160.50 15.19 C 158.76 11.02 154.68 8.30 150.15 8.31 C 143.99 8.33 139.01 13.32 139.00 19.48 Z" fill="url(#未命名的渐变_582-2)" fill-rule="nonzero" group-id="1" node-id="757" stroke="none" target-height="22.3623" target-width="22.362396" target-x="139" target-y="8.31"></path><path d="M 147.60 25.86 C 146.60 26.42 145.84 25.97 145.84 24.86 L 145.84 14.12 C 145.84 13.00 146.63 12.54 147.60 13.12 L 156.91 18.47 C 157.33 18.63 157.60 19.03 157.60 19.47 C 157.60 19.91 157.33 20.31 156.91 20.47 Z" fill="url(#未命名的渐变_615)" fill-rule="nonzero" group-id="1" node-id="759" stroke="none" target-height="13.228534" target-width="11.759354" target-x="145.84" target-y="12.870736"></path><path d="M 19.55 66.72 L 19.55 66.72 C 30.35 66.72 39.11 75.48 39.11 86.28 L 39.11 86.28 C 39.11 97.07 30.35 105.83 19.55 105.83 L 19.55 105.83 C 8.76 105.83 0.00 97.07 0.00 86.28 L 0.00 86.28 C -0.00 75.48 8.76 66.72 19.55 66.72 Z" fill="url(#未命名的渐变_802)" fill-rule="nonzero" group-id="1" node-id="761" stroke="none" target-height="39.11" target-width="39.11" target-x="0" target-y="66.72"></path><path d="M 35.23 74.35 L 35.23 72.40 C 35.23 71.31 34.36 70.43 33.28 70.40 L 31.28 70.40 C 30.18 70.40 29.28 71.30 29.28 72.40 L 9.86 72.40 C 9.86 71.31 8.99 70.43 7.91 70.40 L 6.00 70.40 C 4.90 70.40 4.00 71.30 4.00 72.40 L 4.00 74.35 C 4.00 75.45 4.90 76.35 6.00 76.35 L 6.00 76.35 L 6.00 95.81 L 6.00 95.81 C 4.92 95.84 4.05 96.72 4.05 97.81 L 4.05 99.81 C 4.05 100.91 4.95 101.81 6.05 101.81 L 8.05 101.81 C 9.13 101.78 10.00 100.90 10.00 99.81 L 29.37 99.81 C 29.37 100.91 30.27 101.81 31.37 101.81 L 33.37 101.81 C 34.45 101.78 35.32 100.90 35.32 99.81 L 35.32 97.81 C 35.32 96.72 34.45 95.84 33.37 95.81 L 33.37 95.81 L 33.37 76.30 L 33.37 76.30 C 34.40 76.23 35.21 75.38 35.23 74.35 Z M 31.33 72.40 L 33.33 72.40 L 33.33 74.35 L 31.33 74.35 Z M 6.00 72.40 L 8.00 72.40 L 8.00 74.35 L 6.00 74.35 Z M 8.00 99.72 L 6.00 99.72 L 6.00 97.72 L 8.00 97.72 Z M 33.37 99.72 L 31.37 99.72 L 31.37 97.72 L 33.37 97.72 Z M 31.37 95.81 L 31.37 95.81 C 30.27 95.81 29.37 96.71 29.37 97.81 L 9.86 97.81 C 9.86 96.72 8.99 95.84 7.91 95.81 L 7.91 95.81 L 7.91 76.30 L 7.91 76.30 C 8.99 76.27 9.86 75.39 9.86 74.30 L 29.37 74.30 C 29.37 75.40 30.27 76.30 31.37 76.30 L 31.37 76.30 Z" fill="url(#未命名的渐变_512)" fill-rule="nonzero" group-id="1" node-id="763" stroke="none" target-height="31.409996" target-width="31.32" target-x="4" target-y="70.4"></path><path d="M 11.81 82.16 L 13.76 82.16 L 13.76 80.20 L 18.64 80.20 L 18.64 91.91 L 16.69 91.91 L 16.69 93.86 L 22.54 93.86 L 22.54 91.91 L 20.59 91.91 L 20.59 80.20 L 25.47 80.20 L 25.47 82.16 L 27.42 82.16 L 27.42 78.25 L 11.81 78.25 L 11.81 82.16 Z" fill="url(#未命名的渐变_512-2)" fill-rule="nonzero" group-id="1" node-id="765" stroke="none" target-height="15.610001" target-width="15.61" target-x="11.81" target-y="78.25"></path><path d="M 203.59 67.34 L 203.59 67.34 C 214.38 67.34 223.14 76.10 223.14 86.89 L 223.14 86.89 C 223.14 97.69 214.38 106.45 203.59 106.45 L 203.59 106.45 C 192.79 106.45 184.03 97.69 184.03 86.89 L 184.03 86.89 C 184.03 76.10 192.79 67.34 203.59 67.34 Z" fill="url(#未命名的渐变_877)" fill-rule="nonzero" group-id="1" node-id="767" stroke="none" target-height="39.11" target-width="39.11" target-x="184.03" target-y="67.34"></path><path d="M 209.11 92.52 C 208.79 90.36 206.55 88.68 203.84 88.68 C 201.13 88.68 198.84 90.36 198.56 92.52 C 197.49 96.23 195.37 98.75 192.94 98.75 C 189.42 98.75 186.56 93.46 186.56 86.93 C 186.56 82.00 188.20 77.77 190.56 76.00 C 192.38 74.55 194.64 73.78 196.97 73.81 L 197.30 73.81 C 197.74 73.78 198.17 73.94 198.49 74.25 L 198.49 74.25 C 199.38 75.15 201.49 75.78 203.88 75.78 C 206.27 75.78 208.37 75.15 209.26 74.25 L 209.26 74.25 C 209.58 73.94 210.01 73.78 210.45 73.81 L 210.78 73.81 C 213.09 73.79 215.34 74.56 217.15 76.00 C 219.47 77.77 221.15 82.00 221.15 86.93 C 221.15 93.46 218.29 98.75 214.77 98.75 C 212.34 98.75 210.23 96.23 209.15 92.52 Z" fill="url(#未命名的渐变_868)" fill-rule="nonzero" group-id="1" node-id="769" stroke="none" target-height="24.940002" target-width="34.589996" target-x="186.56" target-y="73.81"></path><path d="M 195.30 82.12 L 193.55 82.12 C 193.24 82.12 192.95 82.29 192.80 82.56 C 192.65 82.83 192.65 83.16 192.80 83.43 C 192.96 83.70 193.24 83.86 193.55 83.87 L 195.30 83.87 L 195.30 85.62 C 195.30 85.93 195.47 86.22 195.74 86.38 C 196.01 86.54 196.35 86.54 196.62 86.38 C 196.89 86.22 197.05 85.93 197.05 85.62 L 197.05 83.87 L 198.80 83.87 C 199.11 83.87 199.40 83.70 199.55 83.43 C 199.71 83.16 199.71 82.83 199.56 82.56 C 199.40 82.29 199.11 82.12 198.80 82.12 L 197.05 82.12 L 197.05 80.37 C 197.05 80.06 196.89 79.77 196.62 79.61 C 196.35 79.46 196.01 79.46 195.74 79.61 C 195.47 79.77 195.30 80.06 195.30 80.37 Z" fill="url(#未命名的渐变_707)" fill-rule="nonzero" group-id="1" node-id="771" stroke="none" target-height="7.001503" target-width="6.9845123" target-x="192.6877" target-y="79.49796"></path><path d="M 211.93 85.62 C 213.00 85.62 213.96 84.98 214.37 84.00 C 214.78 83.02 214.55 81.88 213.80 81.13 C 213.05 80.38 211.91 80.15 210.93 80.56 C 209.95 80.97 209.31 81.93 209.31 83.00 C 209.31 84.45 210.48 85.62 211.93 85.62 Z" fill="url(#未命名的渐变_707-2)" fill-rule="nonzero" group-id="1" node-id="773" stroke="none" target-height="5.2482376" target-width="5.24823" target-x="209.31" target-y="80.371765"></path><path d="M 72.28 133.44 L 72.28 133.44 C 83.07 133.44 91.83 142.20 91.83 153.00 L 91.83 153.00 C 91.83 163.79 83.07 172.55 72.28 172.55 L 72.28 172.55 C 61.48 172.55 52.72 163.79 52.72 153.00 L 52.72 153.00 C 52.72 142.20 61.48 133.44 72.28 133.44 Z" fill="url(#未命名的渐变_892)" fill-rule="nonzero" group-id="1" node-id="775" stroke="none" target-height="39.11" target-width="39.11" target-x="52.72" target-y="133.44"></path><path d="M 84.85 134.85 C 84.64 134.71 84.38 134.64 84.13 134.67 L 65.54 138.91 C 65.19 138.91 65.01 139.26 65.01 139.62 L 65.01 158.14 C 63.05 155.73 59.65 155.08 56.94 156.60 C 54.24 158.12 53.01 161.36 54.04 164.28 C 55.07 167.21 58.06 168.97 61.12 168.46 C 64.18 167.94 66.42 165.30 66.44 162.20 L 66.44 148.61 L 83.60 144.73 L 83.60 156.73 C 81.66 154.31 78.26 153.63 75.54 155.13 C 72.82 156.63 71.58 159.86 72.59 162.80 C 73.60 165.73 76.58 167.51 79.64 167.02 C 82.70 166.52 84.97 163.89 85.00 160.79 L 85.00 135.38 C 85.00 135.20 85.00 134.85 84.85 134.85 Z" fill="url(#未命名的渐变_830)" fill-rule="nonzero" group-id="1" node-id="777" stroke="none" target-height="33.853226" target-width="31.287033" target-x="53.712967" target-y="134.67"></path><path d="M 148.84 133.44 L 148.84 133.44 C 159.63 133.44 168.39 142.20 168.39 153.00 L 168.39 153.00 C 168.39 163.79 159.63 172.55 148.84 172.55 L 148.84 172.55 C 138.04 172.55 129.28 163.79 129.28 153.00 L 129.28 153.00 C 129.28 142.20 138.04 133.44 148.84 133.44 Z" fill="url(#未命名的渐变_759)" fill-rule="nonzero" group-id="1" node-id="779" stroke="none" target-height="39.11" target-width="39.11" target-x="129.28" target-y="133.44"></path><path d="M 151.12 153.00 C 151.12 154.26 150.09 155.29 148.83 155.29 C 147.57 155.29 146.54 154.26 146.54 153.00 C 146.54 151.74 147.57 150.71 148.83 150.71 C 150.09 150.71 151.12 151.74 151.12 153.00 Z" fill="url(#未命名的渐变_893)" fill-rule="nonzero" group-id="1" node-id="781" stroke="none" target-height="4.5799866" target-width="4.580002" target-x="146.54" target-y="150.71"></path><path d="M 144.25 153.00 C 144.25 154.26 143.22 155.29 141.96 155.29 C 140.70 155.29 139.67 154.26 139.67 153.00 C 139.67 151.74 140.70 150.71 141.96 150.71 C 143.22 150.71 144.25 151.74 144.25 153.00 Z" fill="url(#未命名的渐变_893-2)" fill-rule="nonzero" group-id="1" node-id="783" stroke="none" target-height="4.5799866" target-width="4.580002" target-x="139.67" target-y="150.71"></path><path d="M 158.00 153.00 C 158.00 154.26 156.97 155.29 155.71 155.29 C 154.45 155.29 153.42 154.26 153.42 153.00 C 153.42 151.74 154.45 150.71 155.71 150.71 C 156.97 150.71 158.00 151.74 158.00 153.00 Z" fill="url(#未命名的渐变_893-3)" fill-rule="nonzero" group-id="1" node-id="785" stroke="none" target-height="4.5799866" target-width="4.580002" target-x="153.42" target-y="150.71"></path><path d="M 47.26 42.75 L 35.39 42.75 L 34.46 42.56 L 33.71 42.05 L 33.20 41.30 L 33.01 40.37 L 33.01 40.37 L 33.20 39.44 L 33.71 38.69 L 34.46 38.18 L 35.39 37.99 L 47.26 37.99 L 48.19 38.18 L 48.94 38.69 L 49.45 39.44 L 49.64 40.37 L 49.64 40.37 L 49.45 41.30 L 48.94 42.05 L 48.19 42.56 L 47.26 42.75 Z" fill="url(#未命名的渐变_637)" fill-rule="nonzero" group-id="1" node-id="787" stroke-linecap="butt" stroke-width="1" target-height="4.7599983" target-width="16.630001" target-x="33.010002" target-y="37.989998"></path><path d="M 47.26 51.57 L 15.04 51.57 L 14.11 51.38 L 13.36 50.87 L 12.85 50.12 L 12.66 49.19 L 12.66 49.19 L 12.85 48.26 L 13.36 47.51 L 14.11 47.00 L 15.04 46.81 L 47.26 46.81 L 48.19 47.00 L 48.94 47.51 L 49.45 48.26 L 49.64 49.19 L 49.64 49.19 L 49.45 50.12 L 48.94 50.87 L 48.19 51.38 L 47.26 51.57 Z" fill="url(#未命名的渐变_637-2)" fill-rule="nonzero" group-id="1" node-id="789" stroke-linecap="butt" stroke-width="1" target-height="4.7599983" target-width="36.98" target-x="12.66" target-y="46.809998"></path><path d="M 165.04 108.99 L 172.45 108.99 C 173.76 108.99 174.83 110.06 174.83 111.37 L 174.83 111.37 C 174.83 112.68 173.76 113.75 172.45 113.75 L 165.04 113.75 C 163.73 113.75 162.66 112.68 162.66 111.37 L 162.66 111.37 C 162.66 110.06 163.73 108.99 165.04 108.99 Z" fill="url(#未命名的渐变_637-3)" fill-rule="nonzero" group-id="1" node-id="791" stroke="none" target-height="4.760002" target-width="12.169998" target-x="162.66" target-y="108.99"></path><path d="M 165.04 117.81 L 187.36 117.81 C 188.67 117.81 189.74 118.88 189.74 120.19 L 189.74 120.19 C 189.74 121.50 188.67 122.57 187.36 122.57 L 165.04 122.57 C 163.73 122.57 162.66 121.50 162.66 120.19 L 162.66 120.19 C 162.66 118.88 163.73 117.81 165.04 117.81 Z" fill="url(#未命名的渐变_637-4)" fill-rule="nonzero" group-id="1" node-id="793" stroke="none" target-height="4.760002" target-width="27.080002" target-x="162.66" target-y="117.81"></path><path d="M 126.15 83.40 L 126.10 83.40 L 126.10 83.40 Z" fill="url(#未命名的渐变_104)" fill-rule="nonzero" group-id="1" node-id="795" stroke="none" target-height="0" target-width="0.05000305" target-x="126.1" target-y="83.4"></path><path d="M 127.07 80.15 L 131.78 80.15 C 132.33 80.15 132.78 79.70 132.78 79.15 L 132.78 77.65 C 132.78 77.10 132.33 76.65 131.78 76.65 L 117.16 76.65 C 116.61 76.65 116.16 76.20 116.16 75.65 L 116.16 74.50 C 116.16 73.95 115.71 73.50 115.16 73.50 L 113.84 73.50 C 113.29 73.50 112.84 73.05 112.84 72.50 L 112.84 67.85 C 112.84 67.30 112.39 66.85 111.84 66.85 L 110.61 66.85 C 110.06 66.85 109.61 67.30 109.61 67.85 L 109.61 72.45 C 109.61 73.00 109.16 73.45 108.61 73.45 L 107.33 73.45 C 106.78 73.45 106.33 73.00 106.33 72.45 L 106.33 64.59 C 106.33 64.04 105.88 63.59 105.33 63.59 L 103.90 63.59 C 103.35 63.59 102.90 64.04 102.90 64.59 L 102.90 79.31 C 102.90 79.86 103.35 80.31 103.90 80.31 L 108.46 80.31 C 109.01 80.31 109.46 80.76 109.46 81.31 L 109.46 82.60 C 109.46 83.15 109.01 83.60 108.46 83.60 L 107.50 83.60 C 106.95 83.60 106.50 84.05 106.50 84.60 L 106.50 85.70 C 106.50 86.25 106.05 86.70 105.50 86.70 L 104.00 86.70 C 103.45 86.70 103.00 86.25 103.00 85.70 L 103.00 84.37 C 103.00 83.82 102.55 83.37 102.00 83.37 L 97.76 83.37 C 97.21 83.37 96.76 82.92 96.76 82.37 L 96.76 81.15 C 96.76 80.60 97.21 80.15 97.76 80.15 L 98.84 80.15 C 99.39 80.15 99.84 79.70 99.84 79.15 L 99.84 77.79 C 99.84 77.24 99.39 76.79 98.84 76.79 L 94.12 76.79 C 93.57 76.79 93.12 77.24 93.12 77.79 L 93.12 79.16 C 93.12 79.71 92.67 80.16 92.12 80.16 L 87.62 80.16 C 87.07 80.16 86.62 79.71 86.62 79.16 L 86.62 77.76 C 86.62 77.21 86.17 76.76 85.62 76.76 L 77.93 76.76 C 77.38 76.76 76.93 77.21 76.93 77.76 L 76.93 82.52 C 76.93 83.07 77.38 83.52 77.93 83.52 L 79.15 83.52 C 79.70 83.52 80.15 83.97 80.15 84.52 L 80.15 85.76 C 80.15 86.31 80.60 86.76 81.15 86.76 L 82.40 86.76 C 82.95 86.76 83.40 87.21 83.40 87.76 L 83.40 88.98 C 83.40 89.53 83.85 89.98 84.40 89.98 L 86.01 89.98 C 86.56 89.98 87.01 90.43 87.01 90.98 L 87.01 92.50 C 87.01 93.05 87.46 93.50 88.01 93.50 L 89.25 93.50 C 89.80 93.50 90.25 93.05 90.25 92.50 L 90.25 90.78 C 90.25 90.23 90.70 89.78 91.25 89.78 L 95.70 89.78 C 96.25 89.78 96.70 89.33 96.70 88.78 L 96.70 87.69 C 96.70 87.14 97.15 86.69 97.70 86.69 L 99.00 86.69 C 99.55 86.69 100.00 87.14 100.00 87.69 L 100.00 88.85 C 100.00 89.40 100.45 89.85 101.00 89.85 L 102.31 89.85 C 102.86 89.85 103.31 90.30 103.31 90.85 L 103.31 95.50 C 103.31 96.05 103.76 96.50 104.31 96.50 L 105.83 96.50 C 106.38 96.50 106.83 96.05 106.83 95.50 L 106.83 94.25 C 106.83 93.70 107.28 93.25 107.83 93.25 L 109.16 93.25 C 109.71 93.25 110.16 92.80 110.16 92.25 L 110.16 87.54 C 110.16 86.99 110.61 86.54 111.16 86.54 L 112.39 86.54 C 112.94 86.54 113.39 86.09 113.39 85.54 L 113.39 81.28 C 113.39 80.73 113.84 80.28 114.39 80.28 L 122.39 80.28 C 122.94 80.28 123.39 80.73 123.39 81.28 L 123.39 82.44 C 123.39 82.99 123.84 83.44 124.39 83.44 L 125.62 83.44 C 126.17 83.44 126.62 82.99 126.62 82.44 L 126.62 81.11 C 126.57 80.73 126.75 80.36 127.07 80.15 Z M 92.15 86.52 L 87.84 86.52 C 87.29 86.52 86.84 86.07 86.84 85.52 L 86.84 84.46 C 86.84 83.91 87.29 83.46 87.84 83.46 L 92.15 83.46 C 92.70 83.46 93.15 83.91 93.15 84.46 L 93.15 85.55 C 93.13 86.09 92.69 86.52 92.15 86.52 Z" fill="url(#未命名的渐变_104-2)" fill-rule="nonzero" group-id="1" node-id="797" stroke="none" target-height="32.91" target-width="55.85" target-x="76.93" target-y="63.59"></path><path d="M 116.21 73.52 L 116.21 73.52 L 116.21 73.52 L 116.21 73.52 Z" fill="url(#未命名的渐变_104-3)" fill-rule="nonzero" group-id="1" node-id="799" stroke="none" target-height="0" target-width="0" target-x="116.21" target-y="73.52"></path><path d="M 99.91 89.85 L 99.91 89.85 L 99.91 89.85 Z" fill="url(#未命名的渐变_104-4)" fill-rule="nonzero" group-id="1" node-id="801" stroke="none" target-height="0" target-width="0" target-x="99.91" target-y="89.85"></path><path d="M 106.57 63.59 L 106.57 63.59 L 106.57 63.59 Z" fill="url(#未命名的渐变_104-5)" fill-rule="nonzero" group-id="1" node-id="803" stroke="none" target-height="0" target-width="0" target-x="106.57" target-y="63.59"></path><path d="M 83.28 89.83 L 83.28 89.83 L 83.28 89.83 L 83.28 89.83 Z" fill="url(#未命名的渐变_104-6)" fill-rule="nonzero" group-id="1" node-id="805" stroke="none" target-height="0" target-width="0" target-x="83.28" target-y="89.83"></path><path d="M 96.67 89.81 L 96.67 89.81 L 96.67 89.81 Z" fill="url(#未命名的渐变_104-7)" fill-rule="nonzero" group-id="1" node-id="807" stroke="none" target-height="0" target-width="0" target-x="96.67" target-y="89.81"></path><path d="M 122.94 83.40 L 122.94 83.40 L 122.94 83.40 Z" fill="url(#未命名的渐变_104-8)" fill-rule="nonzero" group-id="1" node-id="809" stroke="none" target-height="0" target-width="0" target-x="122.94" target-y="83.4"></path><path d="M 98.82 50.60 L 77.82 50.60 C 77.27 50.60 76.82 51.05 76.82 51.60 L 76.82 72.45 C 76.82 73.00 77.27 73.45 77.82 73.45 L 98.82 73.45 C 99.37 73.45 99.82 73.00 99.82 72.45 L 99.82 51.57 C 99.80 51.03 99.36 50.60 98.82 50.60 Z M 95.61 70.20 L 81.10 70.20 C 80.55 70.20 80.10 69.75 80.10 69.20 L 80.10 54.74 C 80.10 54.19 80.55 53.74 81.10 53.74 L 95.61 53.74 C 96.16 53.74 96.61 54.19 96.61 54.74 L 96.61 69.24 C 96.59 69.78 96.15 70.20 95.61 70.20 Z" fill="url(#未命名的渐变_104-9)" fill-rule="nonzero" group-id="1" node-id="811" stroke="none" target-height="22.849998" target-width="23" target-x="76.82" target-y="50.6"></path><path d="M 144.92 50.59 L 124.00 50.59 C 123.45 50.59 123.00 51.04 123.00 51.59 L 123.00 72.47 C 123.00 73.02 123.45 73.47 124.00 73.47 L 144.92 73.47 C 145.47 73.47 145.92 73.02 145.92 72.47 L 145.92 51.56 C 145.90 51.02 145.46 50.59 144.92 50.59 Z M 141.70 70.19 L 127.20 70.19 C 126.65 70.19 126.20 69.74 126.20 69.19 L 126.20 54.72 C 126.20 54.17 126.65 53.72 127.20 53.72 L 141.70 53.72 C 142.25 53.72 142.70 54.17 142.70 54.72 L 142.70 69.22 C 142.68 69.76 142.24 70.19 141.70 70.19 Z" fill="url(#未命名的渐变_104-10)" fill-rule="nonzero" group-id="1" node-id="813" stroke="none" target-height="22.880001" target-width="22.919998" target-x="123" target-y="50.59"></path><path d="M 77.94 119.45 L 98.85 119.45 C 99.40 119.45 99.85 119.00 99.85 118.45 L 99.85 97.57 C 99.85 97.02 99.40 96.57 98.85 96.57 L 77.94 96.57 C 77.39 96.57 76.94 97.02 76.94 97.57 L 76.94 118.48 C 76.96 119.02 77.40 119.45 77.94 119.45 Z M 81.15 99.80 L 95.64 99.80 C 96.19 99.80 96.64 100.25 96.64 100.80 L 96.64 115.35 C 96.64 115.90 96.19 116.35 95.64 116.35 L 81.15 116.35 C 80.60 116.35 80.15 115.90 80.15 115.35 L 80.15 100.77 C 80.17 100.23 80.61 99.80 81.15 99.80 Z" fill="url(#未命名的渐变_104-11)" fill-rule="nonzero" group-id="1" node-id="815" stroke="none" target-height="22.879997" target-width="22.909996" target-x="76.94" target-y="96.57"></path><path d="M 144.86 109.60 L 137.10 109.60 C 136.55 109.60 136.10 109.15 136.10 108.60 L 136.10 104.15 C 136.10 103.60 136.55 103.15 137.10 103.15 L 138.54 103.15 C 139.09 103.15 139.54 102.70 139.54 102.15 L 139.54 100.63 C 139.54 100.08 139.09 99.63 138.54 99.63 L 133.82 99.63 C 133.27 99.63 132.82 100.08 132.82 100.63 L 132.82 102.08 C 132.82 102.63 132.37 103.08 131.82 103.08 L 117.26 103.08 C 116.71 103.08 116.26 102.63 116.26 102.08 L 116.26 100.68 C 116.26 100.13 116.71 99.68 117.26 99.68 L 121.93 99.68 C 122.48 99.68 122.93 99.23 122.93 98.68 L 122.93 97.53 C 122.93 96.98 122.48 96.53 121.93 96.53 L 117.11 96.53 C 116.56 96.53 116.11 96.08 116.11 95.53 L 116.11 94.38 C 116.11 93.83 115.66 93.38 115.11 93.38 L 113.87 93.38 C 113.32 93.38 112.87 93.83 112.87 94.38 L 112.87 102.30 C 112.87 102.85 112.42 103.30 111.87 103.30 L 107.45 103.30 C 106.90 103.30 106.45 103.75 106.45 104.30 L 106.45 105.60 C 106.45 106.15 106.90 106.60 107.45 106.60 L 122.00 106.60 C 122.55 106.60 123.00 107.05 123.00 107.60 L 123.00 108.80 C 123.00 109.35 123.45 109.80 124.00 109.80 L 125.22 109.80 C 125.77 109.80 126.22 109.35 126.22 108.80 L 126.22 107.67 C 126.22 107.12 126.67 106.67 127.22 106.67 L 132.06 106.67 C 132.61 106.67 133.06 107.12 133.06 107.67 L 133.06 112.35 C 133.06 112.90 133.51 113.35 134.06 113.35 L 135.35 113.35 C 135.90 113.35 136.35 113.80 136.35 114.35 L 136.35 115.53 C 136.35 116.08 136.80 116.53 137.35 116.53 L 138.88 116.53 C 139.43 116.53 139.88 116.08 139.88 115.53 L 139.88 114.28 C 139.88 113.73 140.33 113.28 140.88 113.28 L 145.22 113.28 C 145.77 113.28 146.22 112.83 146.22 112.28 L 146.22 110.70 C 146.28 110.34 146.15 109.98 145.86 109.75 C 145.58 109.52 145.20 109.46 144.86 109.60 Z" fill="url(#未命名的渐变_104-12)" fill-rule="nonzero" group-id="1" node-id="817" stroke="none" target-height="23.150002" target-width="39.770004" target-x="106.45" target-y="93.38"></path><path d="M 106.58 103.27 L 106.58 103.27 L 106.58 103.27 Z" fill="url(#未命名的渐变_104-13)" fill-rule="nonzero" group-id="1" node-id="819" stroke="none" target-height="0" target-width="0" target-x="106.58" target-y="103.27"></path><path d="M 122.90 96.52 L 122.90 96.52 L 122.90 96.52 Z" fill="url(#未命名的渐变_104-14)" fill-rule="nonzero" group-id="1" node-id="821" stroke="none" target-height="0" target-width="0" target-x="122.9" target-y="96.52"></path><path d="M 126.12 109.65 L 126.12 109.65 L 126.12 109.65 L 126.12 109.65 Z" fill="url(#未命名的渐变_104-15)" fill-rule="nonzero" group-id="1" node-id="823" stroke="none" target-height="0" target-width="0" target-x="126.12" target-y="109.65"></path><path d="M 139.55 103.22 L 139.55 103.22 L 139.55 103.22 Z" fill="url(#未命名的渐变_104-16)" fill-rule="nonzero" group-id="1" node-id="825" stroke="none" target-height="0" target-width="0" target-x="139.55" target-y="103.22"></path><path d="M 132.85 99.77 L 132.85 99.77 L 132.85 99.77 Z" fill="url(#未命名的渐变_104-17)" fill-rule="nonzero" group-id="1" node-id="827" stroke="none" target-height="0" target-width="0" target-x="132.85" target-y="99.77"></path><path d="M 122.94 109.67 L 122.94 109.67 L 122.94 109.67 Z" fill="url(#未命名的渐变_104-18)" fill-rule="nonzero" group-id="1" node-id="829" stroke="none" target-height="0" target-width="0" target-x="122.94" target-y="109.67"></path><path d="M 110.83 60.47 L 112.07 60.47 C 112.62 60.47 113.07 60.92 113.07 61.47 L 113.07 62.72 C 113.07 63.27 113.52 63.72 114.07 63.72 L 115.36 63.72 C 115.91 63.72 116.36 64.17 116.36 64.72 L 116.36 65.86 C 116.36 66.41 116.81 66.86 117.36 66.86 L 118.79 66.86 C 119.34 66.86 119.79 66.41 119.79 65.86 L 119.79 61.28 C 119.79 60.73 119.34 60.28 118.79 60.28 L 117.40 60.28 C 116.85 60.28 116.40 59.83 116.40 59.28 L 116.40 57.82 C 116.40 57.27 116.85 56.82 117.40 56.82 L 118.77 56.82 C 119.32 56.82 119.77 56.37 119.77 55.82 L 119.77 51.52 C 119.77 50.97 119.32 50.52 118.77 50.52 L 104.15 50.52 C 103.60 50.52 103.15 50.97 103.15 51.52 L 103.15 56.00 C 103.15 56.55 103.60 57.00 104.15 57.00 L 105.65 57.00 C 106.20 57.00 106.65 57.45 106.65 58.00 L 106.65 62.71 C 106.65 63.26 107.10 63.71 107.65 63.71 L 108.97 63.71 C 109.52 63.71 109.97 63.26 109.97 62.71 L 109.97 61.44 C 109.98 60.95 110.34 60.54 110.83 60.47 Z M 110.83 53.78 L 112.00 53.78 C 112.55 53.78 113.00 54.23 113.00 54.78 L 113.00 55.90 C 113.00 56.45 112.55 56.90 112.00 56.90 L 110.90 56.90 C 110.35 56.90 109.90 56.45 109.90 55.90 L 109.90 54.75 C 109.92 54.22 110.34 53.80 110.87 53.78 Z" fill="url(#未命名的渐变_104-19)" fill-rule="nonzero" group-id="1" node-id="831" stroke="none" target-height="16.34" target-width="16.64" target-x="103.15" target-y="50.52"></path><path d="M 106.61 63.59 L 106.61 63.59 L 106.61 63.59 Z" fill="url(#未命名的渐变_104-5)" fill-rule="nonzero" group-id="1" node-id="833" stroke="none" target-height="0" target-width="0" target-x="106.61" target-y="63.59"></path><path d="M 106.38 115.38 L 106.38 114.10 C 106.38 113.55 106.83 113.10 107.38 113.10 L 111.97 113.10 C 112.52 113.10 112.97 112.65 112.97 112.10 L 112.97 110.65 C 112.97 110.10 112.52 109.65 111.97 109.65 L 104.20 109.65 C 103.65 109.65 103.20 110.10 103.20 110.65 L 103.20 118.46 C 103.20 119.01 103.65 119.46 104.20 119.46 L 108.48 119.46 C 109.03 119.46 109.48 119.01 109.48 118.46 L 109.48 117.24 C 109.48 116.69 109.03 116.24 108.48 116.24 L 107.38 116.24 C 106.88 116.24 106.45 115.88 106.38 115.38 Z" fill="url(#未命名的渐变_104-21)" fill-rule="nonzero" group-id="1" node-id="835" stroke="none" target-height="9.809998" target-width="9.770004" target-x="103.2" target-y="109.65"></path><path d="M 122.94 96.52 L 122.94 96.52 L 122.94 96.52 Z" fill="url(#未命名的渐变_104-14)" fill-rule="nonzero" group-id="1" node-id="837" stroke="none" target-height="0" target-width="0" target-x="122.94" target-y="96.52"></path><path d="M 122.87 94.20 L 122.87 95.77 C 122.87 96.32 123.32 96.77 123.87 96.77 L 125.36 96.77 C 125.91 96.77 126.36 96.32 126.36 95.77 L 126.36 87.83 C 126.36 87.28 125.91 86.83 125.36 86.83 L 123.76 86.83 C 123.21 86.83 122.76 87.28 122.76 87.83 L 122.76 89.10 C 122.76 89.65 122.31 90.10 121.76 90.10 L 120.56 90.10 C 120.01 90.10 119.56 90.55 119.56 91.10 L 119.56 92.34 C 119.56 92.89 120.01 93.34 120.56 93.34 L 121.87 93.34 C 122.37 93.34 122.80 93.70 122.87 94.20 Z" fill="url(#未命名的渐变_104-23)" fill-rule="nonzero" group-id="1" node-id="839" stroke="none" target-height="9.939995" target-width="6.800003" target-x="119.56" target-y="86.83"></path><path d="M 126.15 96.52 L 126.10 96.52 L 126.10 96.52 Z" fill="url(#未命名的渐变_104)" fill-rule="nonzero" group-id="1" node-id="841" stroke="none" target-height="0" target-width="0.05000305" target-x="126.1" target-y="96.52"></path><path d="M 129.60 89.85 L 129.60 89.85 L 129.60 89.85 Z" fill="url(#未命名的渐变_104-25)" fill-rule="nonzero" group-id="1" node-id="843" stroke="none" target-height="0" target-width="0" target-x="129.6" target-y="89.85"></path><path d="M 119.69 89.85 L 119.69 89.85 L 119.69 89.85 Z" fill="url(#未命名的渐变_104-26)" fill-rule="nonzero" group-id="1" node-id="845" stroke="none" target-height="0" target-width="0" target-x="119.69" target-y="89.85"></path><path d="M 126.15 83.44 L 126.15 83.44 L 126.10 83.44 Z" fill="url(#未命名的渐变_104)" fill-rule="nonzero" group-id="1" node-id="847" stroke="none" target-height="0" target-width="0.05000305" target-x="126.1" target-y="83.44"></path><path d="M 129.64 89.85 L 129.64 89.85 L 129.64 89.85 Z" fill="url(#未命名的渐变_104-25)" fill-rule="nonzero" group-id="1" node-id="849" stroke="none" target-height="0" target-width="0" target-x="129.64" target-y="89.85"></path><path d="M 129.64 87.54 L 129.64 88.85 C 129.64 89.40 130.09 89.85 130.64 89.85 L 131.79 89.85 C 132.34 89.85 132.79 89.40 132.79 88.85 L 132.79 84.41 C 132.79 83.86 132.34 83.41 131.79 83.41 L 127.14 83.41 C 126.59 83.41 126.14 83.86 126.14 84.41 L 126.14 85.61 C 126.14 86.16 126.59 86.61 127.14 86.61 L 128.71 86.61 C 129.21 86.64 129.61 87.04 129.64 87.54 Z" fill="url(#未命名的渐变_104-29)" fill-rule="nonzero" group-id="1" node-id="851" stroke="none" target-height="6.439995" target-width="6.649994" target-x="126.14" target-y="83.41"></path><path d="M 119.74 116.38 L 119.74 116.38 L 119.74 116.38 Z" fill="url(#未命名的渐变_104-30)" fill-rule="nonzero" group-id="1" node-id="853" stroke="none" target-height="0" target-width="0" target-x="119.74" target-y="116.38"></path><path d="M 120.71 116.38 L 128.54 116.38 C 129.08 116.38 129.51 116.81 129.51 117.35 L 129.51 118.50 C 129.51 119.04 129.08 119.47 128.54 119.47 L 120.71 119.47 C 120.17 119.47 119.74 119.04 119.74 118.50 L 119.74 117.35 C 119.74 116.81 120.17 116.38 120.71 116.38 Z" fill="url(#未命名的渐变_104-31)" fill-rule="nonzero" group-id="1" node-id="855" stroke="none" target-height="3.090004" target-width="9.769997" target-x="119.74" target-y="116.38"></path><path d="M 136.11 76.80 L 136.11 76.80 L 136.11 76.80 Z" fill="url(#未命名的渐变_104-32)" fill-rule="nonzero" group-id="1" node-id="857" stroke="none" target-height="0" target-width="0" target-x="136.11" target-y="76.8"></path><path d="M 137.12 76.80 L 144.95 76.80 C 145.49 76.80 145.92 77.23 145.92 77.77 L 145.92 78.92 C 145.92 79.46 145.49 79.89 144.95 79.89 L 137.12 79.89 C 136.58 79.89 136.15 79.46 136.15 78.92 L 136.15 77.77 C 136.15 77.23 136.58 76.80 137.12 76.80 Z" fill="url(#未命名的渐变_104-33)" fill-rule="nonzero" group-id="1" node-id="859" stroke="none" target-height="3.0899963" target-width="9.770004" target-x="136.15" target-y="76.8"></path><path d="M 76.73 87.67 L 76.73 92.00 C 76.73 92.55 77.18 93.00 77.73 93.00 L 79.18 93.00 C 79.73 93.00 80.18 92.55 80.18 92.00 L 80.18 87.67 C 80.18 87.12 79.73 86.67 79.18 86.67 L 77.70 86.67 C 77.16 86.69 76.73 87.13 76.73 87.67 Z" fill="url(#未命名的渐变_104-34)" fill-rule="nonzero" group-id="1" node-id="861" stroke="none" target-height="6.330002" target-width="3.449997" target-x="76.73" target-y="86.67"></path><path d="M 83.26 89.81 L 83.26 89.81 L 83.26 89.81 L 83.26 89.81 Z" fill="url(#未命名的渐变_104-6)" fill-rule="nonzero" group-id="1" node-id="863" stroke="none" target-height="0" target-width="0" target-x="83.26" target-y="89.81"></path><path d="M 133.82 93.43 L 138.46 93.43 C 139.00 93.43 139.43 93.86 139.43 94.40 L 139.43 95.54 C 139.43 96.08 139.00 96.51 138.46 96.51 L 133.82 96.51 C 133.28 96.51 132.85 96.08 132.85 95.54 L 132.85 94.40 C 132.85 93.86 133.28 93.43 133.82 93.43 Z" fill="url(#未命名的渐变_104-36)" fill-rule="nonzero" group-id="1" node-id="865" stroke="none" target-height="3.0800018" target-width="6.5799866" target-x="132.85" target-y="93.43"></path><path d="M 132.85 96.51 L 132.85 96.51 L 132.85 96.51 Z" fill="url(#未命名的渐变_104-37)" fill-rule="nonzero" group-id="1" node-id="867" stroke="none" target-height="0" target-width="0" target-x="132.85" target-y="96.51"></path><path d="M 132.85 99.72 L 132.85 99.72 L 132.85 99.72 Z" fill="url(#未命名的渐变_104-17)" fill-rule="nonzero" group-id="1" node-id="869" stroke="none" target-height="0" target-width="0" target-x="132.85" target-y="99.72"></path><path d="M 127.12 96.56 L 131.85 96.56 C 132.39 96.56 132.82 96.99 132.82 97.53 L 132.82 98.76 C 132.82 99.30 132.39 99.73 131.85 99.73 L 127.12 99.73 C 126.58 99.73 126.15 99.30 126.15 98.76 L 126.15 97.53 C 126.15 96.99 126.58 96.56 127.12 96.56 Z" fill="url(#未命名的渐变_104-39)" fill-rule="nonzero" group-id="1" node-id="871" stroke="none" target-height="3.1700058" target-width="6.670006" target-x="126.15" target-y="96.56"></path><path d="M 126.15 96.56 L 126.15 96.56 L 126.10 96.56 Z" fill="url(#未命名的渐变_104)" fill-rule="nonzero" group-id="1" node-id="873" stroke="none" target-height="0" target-width="0.05000305" target-x="126.1" target-y="96.56"></path><path d="M 132.81 96.51 L 132.81 96.51 L 132.81 96.51 Z" fill="url(#未命名的渐变_104-37)" fill-rule="nonzero" group-id="1" node-id="875" stroke="none" target-height="0" target-width="0" target-x="132.81" target-y="96.51"></path><path d="M 126.14 109.67 L 126.14 109.67 L 126.14 109.67 L 126.14 109.67 Z" fill="url(#未命名的渐变_104-42)" fill-rule="nonzero" group-id="1" node-id="877" stroke="none" target-height="0" target-width="0" target-x="126.14" target-y="109.67"></path><path d="M 127.11 109.67 L 128.55 109.67 C 129.09 109.67 129.52 110.10 129.52 110.64 L 129.52 112.08 C 129.52 112.62 129.09 113.05 128.55 113.05 L 127.11 113.05 C 126.57 113.05 126.14 112.62 126.14 112.08 L 126.14 110.64 C 126.14 110.10 126.57 109.67 127.11 109.67 Z" fill="url(#未命名的渐变_104-43)" fill-rule="nonzero" group-id="1" node-id="879" stroke="none" target-height="3.380005" target-width="3.380005" target-x="126.14" target-y="109.67"></path><path d="M 106.58 103.22 L 106.58 103.22 L 106.58 103.22 Z" fill="url(#未命名的渐变_104-13)" fill-rule="nonzero" group-id="1" node-id="881" stroke="none" target-height="0" target-width="0" target-x="106.58" target-y="103.22"></path><path d="M 104.18 99.84 L 105.62 99.84 C 106.16 99.84 106.59 100.27 106.59 100.81 L 106.59 102.25 C 106.59 102.79 106.16 103.22 105.62 103.22 L 104.18 103.22 C 103.64 103.22 103.21 102.79 103.21 102.25 L 103.21 100.81 C 103.21 100.27 103.64 99.84 104.18 99.84 Z" fill="url(#未命名的渐变_104-45)" fill-rule="nonzero" group-id="1" node-id="883" stroke="none" target-height="3.380005" target-width="3.3799973" target-x="103.21" target-y="99.84"></path><path d="M 119.74 116.34 L 119.74 116.34 L 119.74 116.34 Z" fill="url(#未命名的渐变_104-46)" fill-rule="nonzero" group-id="1" node-id="885" stroke="none" target-height="0" target-width="0" target-x="119.74" target-y="116.34"></path><path d="M 119.63 113.12 L 119.68 113.12 L 119.63 113.12 Z" fill="url(#未命名的渐变_104-47)" fill-rule="nonzero" group-id="1" node-id="887" stroke="none" target-height="0" target-width="0.05000305" target-x="119.63" target-y="113.12"></path><path d="M 117.29 116.34 L 118.71 116.34 C 119.26 116.34 119.71 115.89 119.71 115.34 L 119.71 114.05 C 119.68 113.52 119.24 113.10 118.71 113.10 L 117.31 113.10 C 116.76 113.10 116.31 113.55 116.31 114.10 L 116.31 115.38 C 116.33 115.91 116.76 116.33 117.29 116.34 Z" fill="url(#未命名的渐变_104-48)" fill-rule="nonzero" group-id="1" node-id="889" stroke="none" target-height="3.2399979" target-width="3.4000015" target-x="116.31" target-y="113.1"></path><path d="M 117.20 70.41 L 118.64 70.41 C 119.18 70.41 119.61 70.84 119.61 71.38 L 119.61 72.53 C 119.61 73.07 119.18 73.50 118.64 73.50 L 117.20 73.50 C 116.66 73.50 116.23 73.07 116.23 72.53 L 116.23 71.38 C 116.23 70.84 116.66 70.41 117.20 70.41 Z" fill="url(#未命名的渐变_104-49)" fill-rule="nonzero" group-id="1" node-id="891" stroke="none" target-height="3.0899963" target-width="3.3799973" target-x="116.23" target-y="70.41"></path><path d="M 116.23 73.54 L 116.23 73.54 L 116.23 73.54 L 116.23 73.54 Z" fill="url(#未命名的渐变_104-3)" fill-rule="nonzero" group-id="1" node-id="893" stroke="none" target-height="0" target-width="0" target-x="116.23" target-y="73.54"></path><path d="M 122.94 109.67 L 122.94 109.67 L 122.94 109.67 Z" fill="url(#未命名的渐变_104-51)" fill-rule="nonzero" group-id="1" node-id="895" stroke="none" target-height="0" target-width="0" target-x="122.94" target-y="109.67"></path><path d="M 120.64 113.09 L 121.94 113.09 C 122.49 113.09 122.94 112.64 122.94 112.09 L 122.94 110.61 C 122.94 110.06 122.49 109.61 121.94 109.61 L 120.64 109.61 C 120.09 109.61 119.64 110.06 119.64 110.61 L 119.64 112.09 C 119.64 112.64 120.09 113.09 120.64 113.09 Z" fill="url(#未命名的渐变_104-52)" fill-rule="nonzero" group-id="1" node-id="897" stroke="none" target-height="3.4799957" target-width="3.300003" target-x="119.64" target-y="109.61"></path><path d="M 119.68 113.12 L 119.68 113.12 L 119.68 113.12 Z" fill="url(#未命名的渐变_104-53)" fill-rule="nonzero" group-id="1" node-id="899" stroke="none" target-height="0" target-width="0" target-x="119.68" target-y="113.12"></path><path d="M 142.82 103.27 L 142.82 103.27 L 142.82 103.27 Z" fill="url(#未命名的渐变_104-54)" fill-rule="nonzero" group-id="1" node-id="901" stroke="none" target-height="0" target-width="0" target-x="142.82" target-y="103.27"></path><path d="M 144.86 99.82 L 143.79 99.82 C 143.24 99.82 142.79 100.27 142.79 100.82 L 142.79 102.35 C 142.79 102.90 143.24 103.35 143.79 103.35 L 144.87 103.35 C 145.42 103.35 145.87 102.90 145.87 102.35 L 145.87 100.82 C 145.87 100.55 145.76 100.30 145.57 100.11 C 145.38 99.92 145.13 99.82 144.86 99.82 Z" fill="url(#未命名的渐变_104-55)" fill-rule="nonzero" group-id="1" node-id="903" stroke="none" target-height="3.5299988" target-width="3.0800018" target-x="142.79" target-y="99.82"></path><path d="M 119.69 89.81 L 119.69 89.81 L 119.69 89.81 Z" fill="url(#未命名的渐变_104-26)" fill-rule="nonzero" group-id="1" node-id="905" stroke="none" target-height="0" target-width="0" target-x="119.69" target-y="89.81"></path><path d="M 117.29 86.65 L 118.73 86.65 C 119.27 86.65 119.70 87.08 119.70 87.62 L 119.70 88.84 C 119.70 89.38 119.27 89.81 118.73 89.81 L 117.29 89.81 C 116.75 89.81 116.32 89.38 116.32 88.84 L 116.32 87.62 C 116.32 87.08 116.75 86.65 117.29 86.65 Z" fill="url(#未命名的渐变_104-57)" fill-rule="nonzero" group-id="1" node-id="907" stroke="none" target-height="3.159996" target-width="3.3799973" target-x="116.32" target-y="86.65"></path><path d="M 119.69 86.61 L 119.69 86.61 L 119.69 86.61 Z" fill="url(#未命名的渐变_104-58)" fill-rule="nonzero" group-id="1" node-id="909" stroke="none" target-height="0" target-width="0" target-x="119.69" target-y="86.61"></path><path d="M 97.68 89.85 L 98.91 89.85 C 99.45 89.85 99.88 90.28 99.88 90.82 L 99.88 92.26 C 99.88 92.80 99.45 93.23 98.91 93.23 L 97.68 93.23 C 97.14 93.23 96.71 92.80 96.71 92.26 L 96.71 90.82 C 96.71 90.28 97.14 89.85 97.68 89.85 Z" fill="url(#未命名的渐变_104-59)" fill-rule="nonzero" group-id="1" node-id="911" stroke="none" target-height="3.380005" target-width="3.1699982" target-x="96.71" target-y="89.85"></path><path d="M 99.87 89.85 L 99.87 89.85 L 99.87 89.85 Z" fill="url(#未命名的渐变_104-4)" fill-rule="nonzero" group-id="1" node-id="913" stroke="none" target-height="0" target-width="0" target-x="99.87" target-y="89.85"></path><path d="M 96.67 89.85 L 96.67 89.85 L 96.67 89.85 Z" fill="url(#未命名的渐变_104-7)" fill-rule="nonzero" group-id="1" node-id="915" stroke="none" target-height="0" target-width="0" target-x="96.67" target-y="89.85"></path><path d="M 120.70 83.44 L 121.93 83.44 C 122.47 83.44 122.90 83.87 122.90 84.41 L 122.90 85.64 C 122.90 86.18 122.47 86.61 121.93 86.61 L 120.70 86.61 C 120.16 86.61 119.73 86.18 119.73 85.64 L 119.73 84.41 C 119.73 83.87 120.16 83.44 120.70 83.44 Z" fill="url(#未命名的渐变_104-62)" fill-rule="nonzero" group-id="1" node-id="917" stroke="none" target-height="3.1699982" target-width="3.1699982" target-x="119.73" target-y="83.44"></path><path d="M 119.73 86.61 L 119.73 86.61 L 119.73 86.61 Z" fill="url(#未命名的渐变_104-58)" fill-rule="nonzero" group-id="1" node-id="919" stroke="none" target-height="0" target-width="0" target-x="119.73" target-y="86.61"></path><path d="M 122.90 83.40 L 122.90 83.40 L 122.90 83.40 Z" fill="url(#未命名的渐变_104-8)" fill-rule="nonzero" group-id="1" node-id="921" stroke="none" target-height="0" target-width="0" target-x="122.9" target-y="83.4"></path><path d="M 139.31 83.40 L 139.31 83.40 L 139.31 83.40 Z" fill="url(#未命名的渐变_104-65)" fill-rule="nonzero" group-id="1" node-id="923" stroke="none" target-height="0" target-width="0" target-x="139.31" target-y="83.4"></path><path d="M 136.10 86.61 L 136.10 86.61 L 136.10 86.61 Z" fill="url(#未命名的渐变_104-66)" fill-rule="nonzero" group-id="1" node-id="925" stroke="none" target-height="0" target-width="0" target-x="136.1" target-y="86.61"></path><path d="M 137.11 83.44 L 138.34 83.44 C 138.88 83.44 139.31 83.87 139.31 84.41 L 139.31 85.64 C 139.31 86.18 138.88 86.61 138.34 86.61 L 137.11 86.61 C 136.57 86.61 136.14 86.18 136.14 85.64 L 136.14 84.41 C 136.14 83.87 136.57 83.44 137.11 83.44 Z" fill="url(#未命名的渐变_104-67)" fill-rule="nonzero" group-id="1" node-id="927" stroke="none" target-height="3.1699982" target-width="3.1699982" target-x="136.14" target-y="83.44"></path><path d="M 142.78 105.39 L 142.78 104.26 C 142.78 103.71 142.33 103.26 141.78 103.26 L 140.49 103.26 C 139.94 103.26 139.49 103.71 139.49 104.26 L 139.49 105.41 C 139.49 105.96 139.94 106.41 140.49 106.41 L 141.79 106.41 C 142.06 106.41 142.31 106.30 142.50 106.11 C 142.68 105.91 142.79 105.66 142.78 105.39 Z" fill="url(#未命名的渐变_104-68)" fill-rule="nonzero" group-id="1" node-id="929" stroke="none" target-height="3.1500015" target-width="3.2899933" target-x="139.49" target-y="103.26"></path><path d="M 142.77 103.27 L 142.77 103.27 L 142.77 103.27 Z" fill="url(#未命名的渐变_104-69)" fill-rule="nonzero" group-id="1" node-id="931" stroke="none" target-height="0" target-width="0" target-x="142.77" target-y="103.27"></path><path d="M 139.55 103.26 L 139.55 103.26 L 139.55 103.26 Z" fill="url(#未命名的渐变_104-16)" fill-rule="nonzero" group-id="1" node-id="933" stroke="none" target-height="0" target-width="0" target-x="139.55" target-y="103.26"></path><path d="M 143.78 93.39 L 144.88 93.39 C 145.42 93.39 145.85 93.82 145.85 94.36 L 145.85 95.49 C 145.85 96.03 145.42 96.46 144.88 96.46 L 143.78 96.46 C 143.24 96.46 142.81 96.03 142.81 95.49 L 142.81 94.36 C 142.81 93.82 143.24 93.39 143.78 93.39 Z" fill="url(#未命名的渐变_104-71)" fill-rule="nonzero" group-id="1" node-id="935" stroke="none" target-height="3.0699997" target-width="3.0400085" target-x="142.81" target-y="93.39"></path><path d="M 143.78 86.63 L 144.88 86.63 C 145.42 86.63 145.85 87.06 145.85 87.60 L 145.85 88.73 C 145.85 89.27 145.42 89.70 144.88 89.70 L 143.78 89.70 C 143.24 89.70 142.81 89.27 142.81 88.73 L 142.81 87.60 C 142.81 87.06 143.24 86.63 143.78 86.63 Z" fill="url(#未命名的渐变_104-71)" fill-rule="nonzero" group-id="1" node-id="937" stroke="none" target-height="3.0699997" target-width="3.0400085" target-x="142.81" target-y="86.63"></path><path d="M 143.81 116.43 L 144.91 116.43 C 145.45 116.43 145.88 116.86 145.88 117.40 L 145.88 118.49 C 145.88 119.03 145.45 119.46 144.91 119.46 L 143.81 119.46 C 143.27 119.46 142.84 119.03 142.84 118.49 L 142.84 117.40 C 142.84 116.86 143.27 116.43 143.81 116.43 Z" fill="url(#未命名的渐变_104-73)" fill-rule="nonzero" group-id="1" node-id="939" stroke="none" target-height="3.0299988" target-width="3.0400085" target-x="142.84" target-y="116.43"></path><path d="M 84.33 57.02 L 92.12 57.02 C 92.66 57.02 93.09 57.45 93.09 57.99 L 93.09 65.78 C 93.09 66.32 92.66 66.75 92.12 66.75 L 84.33 66.75 C 83.79 66.75 83.36 66.32 83.36 65.78 L 83.36 57.99 C 83.36 57.45 83.79 57.02 84.33 57.02 Z" fill="url(#未命名的渐变_104-74)" fill-rule="nonzero" group-id="1" node-id="941" stroke="none" target-height="9.73" target-width="9.729996" target-x="83.36" target-y="57.02"></path><path d="M 130.66 57.01 L 138.50 57.01 C 139.04 57.01 139.47 57.44 139.47 57.98 L 139.47 65.76 C 139.47 66.30 139.04 66.73 138.50 66.73 L 130.66 66.73 C 130.12 66.73 129.69 66.30 129.69 65.76 L 129.69 57.98 C 129.69 57.44 130.12 57.01 130.66 57.01 Z" fill="url(#未命名的渐变_104-75)" fill-rule="nonzero" group-id="1" node-id="943" stroke="none" target-height="9.720005" target-width="9.779999" target-x="129.69" target-y="57.01"></path><path d="M 84.33 103.31 L 92.11 103.31 C 92.65 103.31 93.08 103.74 93.08 104.28 L 93.08 112.12 C 93.08 112.66 92.65 113.09 92.11 113.09 L 84.33 113.09 C 83.79 113.09 83.36 112.66 83.36 112.12 L 83.36 104.28 C 83.36 103.74 83.79 103.31 84.33 103.31 Z" fill="url(#未命名的渐变_104-74)" fill-rule="nonzero" group-id="1" node-id="945" stroke="none" target-height="9.779999" target-width="9.720001" target-x="83.36" target-y="103.31"></path></g></svg>